<?xml version="1.0" encoding="UTF-8" standalone="no"?>
<svg
   version="1.0"
   width="512.000000pt"
   height="512.000000pt"
   viewBox="0 0 512.000000 512.000000"
   preserveAspectRatio="xMidYMid meet"
   id="svg1"
   sodipodi:docname="logo_milu_b.svg"
   inkscape:version="1.3 (0e150ed6c4, 2023-07-21)"
   xmlns:inkscape="http://www.inkscape.org/namespaces/inkscape"
   xmlns:sodipodi="http://sodipodi.sourceforge.net/DTD/sodipodi-0.dtd"
   xmlns="http://www.w3.org/2000/svg"
   xmlns:svg="http://www.w3.org/2000/svg">
  <defs
     id="defs1" />
  <sodipodi:namedview
     id="namedview1"
     pagecolor="#ffffff"
     bordercolor="#000000"
     borderopacity="0.25"
     inkscape:showpageshadow="2"
     inkscape:pageopacity="0.0"
     inkscape:pagecheckerboard="0"
     inkscape:deskcolor="#d1d1d1"
     inkscape:document-units="pt"
     inkscape:zoom="1.0825195"
     inkscape:cx="340.87145"
     inkscape:cy="341.33333"
     inkscape:window-width="1920"
     inkscape:window-height="974"
     inkscape:window-x="-11"
     inkscape:window-y="-11"
     inkscape:window-maximized="1"
     inkscape:current-layer="svg1" />
  <g
     transform="translate(0.000000,512.000000) scale(0.100000,-0.100000)"
     fill="#000000"
     stroke="none"
     id="g1"
     style="fill:#ffffff">
    <path
       d="M3828 4540 c-20 -15 -77 -161 -283 -732 -142 -392 -261 -716 -264 -719 -3 -4 -319 -21 -701 -38 -382 -18 -823 -38 -980 -46 -388 -18 -489 -7 -674 76 -180 81 -319 200 -433 371 -35 53 -71 102 -80 109 -8 8 -33 14 -55 14 -33 0 -46 -7 -69 -33 -16 -18 -29 -43 -29 -56 0 -33 51 -128 115 -211 166 -219 369 -356 654 -441 9 -3 -5 -24 -42 -63 -94 -99 -163 -218 -211 -365 -28 -84 -56 -230 -56 -287 0 -20 -6 -42 -13 -48 -8 -6 -105 -51 -217 -100 -111 -49 -214 -97 -227 -108 -19 -14 -50 -90 -141 -343 -131 -367 -136 -396 -85 -439 17 -14 61 -41 97 -59 60 -31 68 -33 101 -22 20 6 42 22 50 33 8 12 50 123 94 246 44 123 81 225 83 226 5 4 373 34 376 30 2 -2 -24 -40 -57 -85 -34 -45 -64 -93 -67 -106 -8 -31 111 -689 132 -731 23 -45 58 -56 164 -52 86 4 93 6 116 32 32 38 31 59 -17 324 -23 125 -38 228 -33 233 5 4 191 133 414 286 408 281 480 340 546 439 29 44 41 54 58 50 19 -4 554 -97 1145 -199 113 -20 208 -39 211 -43 4 -5 182 -246 394 -538 213 -291 397 -535 409 -542 35 -20 74 -15 136 17 69 34 101 71 101 114 0 20 -70 165 -205 426 -112 217 -202 396 -201 397 1 2 92 -15 201 -37 109 -22 201 -40 203 -40 2 0 1 -37 -3 -83 -8 -104 1 -127 74 -172 77 -48 130 -44 163 13 31 53 158 375 158 401 0 33 -23 67 -58 85 -15 7 -189 69 -387 137 -198 67 -362 124 -364 125 -3 3 202 962 215 1006 5 15 19 17 113 17 165 0 282 32 415 115 124 77 284 265 302 353 8 41 -17 87 -58 106 -25 11 -306 127 -425 174 -7 3 -13 13 -13 22 0 34 -51 123 -97 169 -27 27 -73 58 -105 72 -66 29 -62 17 -77 205 -10 116 -12 121 -41 148 -22 19 -41 27 -68 27 -35 0 -46 -7 -110 -74 l-72 -74 -19 67 c-11 36 -27 93 -37 126 -29 103 -102 146 -166 95z"
       id="path1"
       style="fill:#ffffff" />
  </g>
</svg>
